<svg width="71" height="80" viewBox="0 0 71 80" fill="none" xmlns="http://www.w3.org/2000/svg">
<path d="M50.34 49.13C51.0008 48.1372 51.5762 47.0901 52.06 46H53C53.7956 46 54.5587 45.6839 55.1213 45.1213C55.6839 44.5587 56 43.7957 56 43C56 42.2044 55.6839 41.4413 55.1213 40.8787C54.5587 40.3161 53.7956 40 53 40H34C33.2044 40 32.4413 40.3161 31.8787 40.8787C31.3161 41.4413 31 42.2044 31 43C31 43.7957 31.3161 44.5587 31.8787 45.1213C32.4413 45.6839 33.2044 46 34 46H39.91C38.5966 47.1541 37.0468 48.0073 35.3692 48.4998C33.6916 48.9923 31.9266 49.1122 30.1977 48.8512C28.4689 48.5902 26.818 47.9546 25.3605 46.9888C23.903 46.023 22.6742 44.7504 21.76 43.26C21.608 43.0789 21.3967 42.9575 21.1636 42.9174C20.9306 42.8773 20.6909 42.9211 20.4871 43.041C20.2832 43.1609 20.1285 43.3491 20.0503 43.5723C19.9721 43.7955 19.9756 44.0391 20.06 44.26C21.2267 46.1813 22.8388 47.7934 24.76 48.96H16C13.774 45.9902 12.4182 42.4596 12.0845 38.7633C11.7507 35.0669 12.452 31.3505 14.11 28.03C14.1431 28.0889 14.1798 28.1457 14.22 28.2L14.36 28.41C14.5422 28.6807 14.7391 28.9411 14.95 29.19L15.03 29.29C15.2558 29.5441 15.4998 29.7814 15.76 30C15.8455 30.0787 15.9356 30.1522 16.03 30.22C16.2592 30.4078 16.4997 30.5814 16.75 30.74L17.08 30.93C17.3 31.05 17.52 31.16 17.75 31.26L18.13 31.42C18.4216 31.5316 18.7186 31.6284 19.02 31.71C18.4735 33.0436 18.1362 34.4535 18.02 35.89C18.0108 36.0213 18.0276 36.1532 18.0693 36.278C18.1111 36.4029 18.177 36.5183 18.2634 36.6176C18.3498 36.717 18.4548 36.7984 18.5726 36.8571C18.6905 36.9158 18.8187 36.9508 18.95 36.96C19.0813 36.9692 19.2132 36.9524 19.338 36.9107C19.4629 36.8689 19.5783 36.803 19.6776 36.7166C19.777 36.6303 19.8583 36.5252 19.9171 36.4074C19.9758 36.2896 20.0108 36.1613 20.02 36.03C20.143 34.6329 20.512 33.2686 21.11 32C22.3556 31.9894 23.5814 31.688 24.69 31.12L26.88 33.31C27.3356 33.7593 27.923 34.0512 28.5563 34.1429C29.1896 34.2347 29.8356 34.1215 30.4 33.82L33.28 36.71C33.774 37.212 34.4458 37.4994 35.15 37.51C35.7126 37.5163 36.2551 37.3007 36.66 36.91L39.9 33.67C40.3153 33.1924 40.5269 32.571 40.4895 31.9392C40.4522 31.3074 40.1687 30.7153 39.7 30.29L36.81 27.4C37.1115 26.8356 37.2247 26.1896 37.1329 25.5563C37.0411 24.923 36.7493 24.3356 36.3 23.88L22.12 9.70001C21.6644 9.25071 21.077 8.95886 20.4437 8.86711C19.8104 8.77535 19.1644 8.8885 18.6 9.19001L15.29 5.87001C14.8647 5.40128 14.2726 5.11785 13.6408 5.08046C13.009 5.04308 12.3876 5.25471 11.91 5.67001L8.67 8.91001C8.44863 9.13803 8.28082 9.41249 8.17876 9.71347C8.07671 10.0144 8.04297 10.3344 8.08 10.65C8.14795 11.271 8.4268 11.8498 8.87 12.29L12.19 15.6C11.8885 16.1644 11.7753 16.8105 11.8671 17.4437C11.9589 18.077 12.2507 18.6644 12.7 19.12L13.9 20.32C13.3097 21.4569 13.001 22.719 13 24C13.0011 24.5455 13.0648 25.0891 13.19 25.62C11.1043 29.0495 10.0008 32.9861 10 37C9.9784 41.3156 11.2459 45.5393 13.64 49.13C12.0498 49.445 10.6183 50.302 9.58967 51.555C8.56108 52.8079 7.99922 54.379 8 56C8 56.7957 8.31607 57.5587 8.87868 58.1213C9.44129 58.6839 10.2044 59 11 59H53C53.7956 59 54.5587 58.6839 55.1213 58.1213C55.6839 57.5587 56 56.7957 56 56C55.9999 54.3761 55.4352 52.8028 54.4026 51.5495C53.37 50.2962 51.9338 49.4409 50.34 49.13V49.13ZM21 30H20.55C19.3049 29.9158 18.1179 29.4415 17.1576 28.6445C16.1972 27.8475 15.5123 26.7683 15.2 25.56C15.0632 25.0514 14.9959 24.5267 15 24C15 22.4087 15.6321 20.8826 16.7574 19.7574C17.8826 18.6321 19.4087 18 21 18C22.5913 18 24.1174 18.6321 25.2426 19.7574C26.3679 20.8826 27 22.4087 27 24C27.0131 24.1864 27.0131 24.3736 27 24.56C26.8736 26.0576 26.1843 27.4516 25.0709 28.4611C23.9575 29.4706 22.5028 30.0205 21 30ZM38.48 32.24L35.24 35.48C35.1403 35.501 35.0367 35.4934 34.9411 35.458C34.8456 35.4226 34.762 35.3609 34.7 35.28L31.91 32.5L35.5 28.91L38.28 31.7C38.53 32 38.52 32.21 38.48 32.24V32.24ZM10.07 10.46C10.07 10.38 10.07 10.33 10.07 10.33L13.31 7.09001H13.39C13.4777 7.0932 13.5637 7.11437 13.6429 7.15222C13.722 7.19006 13.7925 7.24377 13.85 7.31001L17.07 10.52L13.5 14.09L10.29 10.87C10.1686 10.7652 10.0902 10.6191 10.07 10.46V10.46ZM14.07 17.7C13.8868 17.5131 13.7841 17.2618 13.7841 17C13.7841 16.7383 13.8868 16.4869 14.07 16.3L14.16 16.21L19.16 11.21L19.25 11.12C19.4369 10.9368 19.6882 10.8342 19.95 10.8342C20.2118 10.8342 20.4631 10.9368 20.65 11.12L34.88 25.3C35.0632 25.4869 35.1659 25.7383 35.1659 26C35.1659 26.2618 35.0632 26.5131 34.88 26.7L34.79 26.79L29.79 31.79L29.7 31.88C29.5131 32.0632 29.2618 32.1659 29 32.1659C28.7382 32.1659 28.4869 32.0632 28.3 31.88L26.37 30C27.887 28.6685 28.8295 26.8013 29 24.79C29.0205 24.5271 29.0205 24.2629 29 24C29.0004 22.4616 28.5573 20.9557 27.7237 19.6628C26.8901 18.3698 25.7014 17.3446 24.3 16.71C23.2641 16.2381 22.1383 15.9958 21 16C19.8812 16.0025 18.7754 16.2397 17.754 16.6961C16.7325 17.1526 15.8182 17.8182 15.07 18.65L14.07 17.7ZM33 43C33.0018 42.867 33.0302 42.7357 33.0835 42.6138C33.1367 42.4919 33.2137 42.3818 33.31 42.29C33.3987 42.1965 33.5058 42.1225 33.6245 42.0725C33.7433 42.0226 33.8712 41.9979 34 42H53C53.2652 42 53.5196 42.1054 53.7071 42.2929C53.8946 42.4804 54 42.7348 54 43C53.9982 43.133 53.9698 43.2643 53.9165 43.3862C53.8633 43.5082 53.7863 43.6182 53.69 43.71C53.6013 43.8035 53.4942 43.8776 53.3755 43.9275C53.2567 43.9774 53.1288 44.0021 53 44H34C33.7348 44 33.4804 43.8947 33.2929 43.7071C33.1054 43.5196 33 43.2652 33 43ZM42.72 46H49.86C49.3296 47.0529 48.7072 48.0568 48 49H39.23C40.5486 48.1963 41.7274 47.183 42.72 46V46ZM53.72 56.71C53.628 56.8074 53.516 56.8837 53.3917 56.9337C53.2674 56.9838 53.1338 57.0064 53 57H11C10.7348 57 10.4804 56.8947 10.2929 56.7071C10.1054 56.5196 10 56.2652 10 56C10 54.6739 10.5268 53.4022 11.4645 52.4645C12.4021 51.5268 13.6739 51 15 51H49C50.3261 51 51.5979 51.5268 52.5355 52.4645C53.4732 53.4022 54 54.6739 54 56C53.9982 56.133 53.9698 56.2643 53.9165 56.3862C53.8633 56.5082 53.7863 56.6182 53.69 56.71H53.72Z" fill="black"/>
<path d="M19.11 39C18.9816 39.0316 18.8607 39.0882 18.7544 39.1668C18.648 39.2454 18.5583 39.3442 18.4904 39.4577C18.4225 39.5711 18.3778 39.6969 18.3589 39.8278C18.3399 39.9586 18.3471 40.092 18.38 40.22V40.32C18.4367 40.54 18.5666 40.7342 18.7484 40.8705C18.9301 41.0068 19.1529 41.0772 19.38 41.07H19.63C19.7575 41.0374 19.8773 40.9799 19.9825 40.9009C20.0878 40.8219 20.1764 40.7228 20.2433 40.6095C20.3102 40.4961 20.354 40.3707 20.3723 40.2404C20.3907 40.1101 20.3831 39.9774 20.35 39.85V39.72C20.3175 39.5903 20.2594 39.4685 20.179 39.3617C20.0987 39.2548 19.9977 39.1652 19.8821 39.0981C19.7665 39.031 19.6386 38.9877 19.506 38.9709C19.3734 38.954 19.2387 38.9639 19.11 39Z" fill="black"/>
<g clip-path="url(#clip0)">
<path d="M60 47C53.928 47 49 51.928 49 58C49 64.072 53.928 69 60 69C66.072 69 71 64.072 71 58C71 51.928 66.072 47 60 47ZM65.5 59.1H61.1V63.5H58.9V59.1H54.5V56.9H58.9V52.5H61.1V56.9H65.5V59.1Z" fill="black"/>
</g>
<defs>
<clipPath id="clip0">
<rect x="47" y="45" width="24" height="24" fill="white"/>
</clipPath>
</defs>
</svg>
